PathFileType	4	(X/Y/Z)	./resultDataOpenSim/trcMotMarkerGrf/sub10/qtm-15-01.trc
DataRate	CameraRate	NumFrames	NumMarkers	Units	OrigDataRate	OrigDataStartFrame	OrigNumFrames
250.000000	250.000000	12	24	m	250.000000	396	452
Frame#	Time	L.Toe.Tip			R.Toe.Tip			L.Ankle.Lat			R.Ankle.Lat			L.Ankle.Med			R.Ankle.Med			L.Heel			R.Heel			L.Knee.Lat			R.Knee.Lat			L.Knee.Med			R.Knee.Med			L.Thigh.Upper			R.Thigh.Upper			L.ASIS			R.ASIS			V.Sacral			L.Acromium			R.Acromium			C7			L.Elbow			R.Elbow			L.Wrist.Lat			R.Wrist.Lat
		X1	Y1	Z1	X2	Y2	Z2	X3	Y3	Z3	X4	Y4	Z4	X5	Y5	Z5	X6	Y6	Z6	X7	Y7	Z7	X8	Y8	Z8	X9	Y9	Z9	X10	Y10	Z10	X11	Y11	Z11	X12	Y12	Z12	X13	Y13	Z13	X14	Y14	Z14	X15	Y15	Z15	X16	Y16	Z16	X17	Y17	Z17	X18	Y18	Z18	X19	Y19	Z19	X20	Y20	Z20	X21	Y21	Z21	X22	Y22	Z22	X23	Y23	Z23	X24	Y24	Z24

396	1.58	1.5668647	0.12039944	-0.26289752	0.86385741	0.038057631	-0.016018457	1.43994	0.089025892	-0.30000244	0.7347878	0.090904887	0.031202748	1.4392253	0.11048074	-0.21786578	0.75680564	0.10887618	-0.054598397	1.3962677	0.029986576	-0.26458734	0.67657032	0.080503038	-0.01168339	1.3010094	0.45383304	-0.2884704	0.9274628	0.44625617	0.047382333	1.3195348	0.42563118	-0.17031107	0.94768956	0.44014005	-0.079334868	1.1591418	0.81063008	-0.30384087	1.0422302	0.84648597	0.073982836	1.1965731	0.91865577	-0.21829902	1.1427454	0.92652738	0.024803956	0.97881902	0.92789783	-0.15144798	1.1089868	1.3968	-0.26800427	1.1240821	1.3875689	0.048576768	1.0402616	1.4222046	-0.11024953	0.89863249	1.1275374	-0.30032027	1.1130277	1.0334274	0.13012455	0.92198466	0.90354295	-0.4002135	1.3301021	0.91727947	0.083897136
397	1.584	1.5739857	0.11973358	-0.26301387	0.86403755	0.038043469	-0.016006999	1.4470585	0.0878983	-0.29942143	0.73594871	0.092582209	0.031392632	1.4465944	0.10967304	-0.21732338	0.75807995	0.11020584	-0.054453746	1.403673	0.028842074	-0.26375236	0.67755919	0.082920219	-0.011572293	1.3082359	0.45306564	-0.28855432	0.93265064	0.44555728	0.046699505	1.326414	0.42513324	-0.17036898	0.95351574	0.43898367	-0.079839894	1.1664033	0.8092144	-0.30458974	1.0476213	0.84525579	0.072324305	1.2033913	0.91749557	-0.21901338	1.1485284	0.92555655	0.024367356	0.98550242	0.92657676	-0.15295946	1.1139524	1.395786	-0.26906929	1.1301418	1.3864174	0.047396025	1.0456512	1.4209039	-0.11120147	0.90342192	1.1264344	-0.30143971	1.1216251	1.0316947	0.12882293	0.92756137	0.90249499	-0.40127951	1.3379755	0.91749873	0.076592192
398	1.588	1.580557	0.11855657	-0.26306158	0.86421251	0.03801625	-0.015999552	1.4535947	0.086555755	-0.29879307	0.73718017	0.094323208	0.031622203	1.4535032	0.10853266	-0.21672603	0.75945164	0.11161765	-0.054243783	1.4103978	0.027545921	-0.26277779	0.67864504	0.08546797	-0.0114106	1.3154936	0.45225423	-0.28861998	0.93797503	0.44486301	0.04604858	1.3333819	0.42465152	-0.17047594	0.95943384	0.437834	-0.080339196	1.173606	0.80795724	-0.3054193	1.0536188	0.84391318	0.070891327	1.2102586	0.91632967	-0.21981624	1.154505	0.92459352	0.023823751	0.99223793	0.92531787	-0.15441633	1.1189603	1.3947821	-0.27016426	1.1362117	1.3852959	0.046182148	1.0510643	1.4196086	-0.11219181	0.90828502	1.1253232	-0.30258263	1.1298004	1.0299112	0.1270697	0.93323333	0.90146378	-0.40246053	1.3456506	0.91777866	0.069459609
399	1.592	1.5866053	0.11685485	-0.26302807	0.86440656	0.037982797	-0.015986821	1.4595786	0.08500915	-0.29813216	0.738473	0.096149141	0.031870543	1.4599542	0.10706867	-0.21609877	0.76095177	0.11309013	-0.053997278	1.4165006	0.026096193	-0.26156322	0.67983589	0.088143553	-0.011192226	1.3227542	0.45140872	-0.28867622	0.94343877	0.44417491	0.045423933	1.3404745	0.42418087	-0.17062936	0.96543492	0.43670507	-0.080828958	1.1807403	0.80689224	-0.3063191	1.0604549	0.84242201	0.069746521	1.2171885	0.91515479	-0.22065902	1.160654	0.92364291	0.023187524	0.99902503	0.92413129	-0.15578997	1.1240102	1.3937866	-0.2712904	1.1422948	1.3842041	0.044933828	1.056506	1.418322	-0.11322933	0.91325195	1.1241956	-0.30378665	1.1377132	1.0281686	0.12481025	0.93900445	0.90044513	-0.4037506	1.3531665	0.91811755	0.062466727
400	1.596	1.5921767	0.114672	-0.26295977	0.86464151	0.037948597	-0.015970294	1.4650331	0.083265132	-0.29743534	0.73986221	0.09808037	0.032150767	1.4659196	0.10531188	-0.21545269	0.76260491	0.11461366	-0.053732926	1.4220155	0.024516046	-0.26006661	0.68114986	0.090939382	-0.010925794	1.3300149	0.45053764	-0.28873921	0.94903077	0.44348861	0.044826353	1.3477071	0.42371239	-0.17080954	0.97151926	0.43560212	-0.081303529	1.1877975	0.8060294	-0.30726927	1.067866	0.84086957	0.068743679	1.2241918	0.91396752	-0.221475	1.1669559	0.92270465	0.022475447	1.0058623	0.92303031	-0.15707075	1.1291035	1.3928049	-0.27244444	1.1483859	1.3831459	0.043658406	1.0619743	1.4170429	-0.11432033	0.91835322	1.1230361	-0.3050953	1.1454689	1.0265154	0.12219801	0.94487883	0.89943957	-0.40513736	1.3605703	0.91851127	0.055575658
401	1.6	1.5972983	0.11210557	-0.26290133	0.86493085	0.037918301	-0.015959906	1.4699768	0.081334703	-0.29668805	0.74143068	0.10012206	0.032492619	1.4713658	0.10331109	-0.21478121	0.76440763	0.11619342	-0.053437841	1.4268797	0.022908535	-0.25846297	0.68260721	0.093850945	-0.010619984	1.337307	0.44964681	-0.28882386	0.95474427	0.44279353	0.044262338	1.3550619	0.42323065	-0.17098667	0.97769428	0.43452637	-0.081756391	1.1947751	0.80534711	-0.30824956	1.0752746	0.83944819	0.067701616	1.2312644	0.91279055	-0.22225173	1.1733834	0.92177372	0.021709275	1.0127547	0.92199249	-0.15829955	1.1342407	1.391843	-0.27362048	1.154486	1.3821203	0.042354632	1.0674641	1.4157677	-0.11545797	0.92360609	1.1218374	-0.30651528	1.1530582	1.024958	0.11940522	0.95085899	0.89844858	-0.40660662	1.3678842	0.91895336	0.04877435
402	1.604	1.6019922	0.10924777	-0.26284104	0.86527973	0.037897791	-0.01596165	1.4744397	0.07924274	-0.2958925	0.74323613	0.10227925	0.032902624	1.4762839	0.10111787	-0.21407287	0.76632789	0.11784259	-0.053076436	1.4309447	0.021479576	-0.25707776	0.68422462	0.096884006	-0.010286477	1.3446538	0.44873822	-0.28893363	0.96059925	0.44208461	0.043728362	1.3625041	0.42272878	-0.17113955	0.98396905	0.43347424	-0.082176054	1.2016847	0.80480053	-0.30923637	1.0822818	0.83823823	0.066571872	1.2383846	0.91166514	-0.22302629	1.1799026	0.92083778	0.020914056	1.0197142	0.92095495	-0.1595407	1.1394174	1.3909035	-0.27481734	1.1606078	1.381119	0.041006459	1.0729784	1.4144968	-0.11662373	0.92897143	1.1206192	-0.3079977	1.1604546	1.0234864	0.11653396	0.95694516	0.89747029	-0.40814953	1.3751074	0.91943494	0.042067358
403	1.608	1.6063469	0.10608323	-0.26274465	0.86567714	0.037886999	-0.015970013	1.4784859	0.077037545	-0.29511321	0.74523575	0.10454206	0.033343958	1.4807182	0.09875967	-0.21333103	0.76835097	0.11957097	-0.052633538	1.4341091	0.020431446	-0.25610758	0.68601287	0.10004975	-0.0099420045	1.3520163	0.44780399	-0.28904552	0.96662895	0.44136759	0.043208131	1.3699956	0.42220203	-0.17126363	0.9903588	0.43243603	-0.082560648	1.208552	0.80433738	-0.31021108	1.0889836	0.83715978	0.06539764	1.2455334	0.91062054	-0.22382933	1.1865115	0.91987997	0.020090569	1.0267389	0.9198722	-0.16081557	1.1446248	1.3899872	-0.27604095	1.166762	1.3801353	0.039603389	1.0785247	1.4132373	-0.11780504	0.93437039	1.1194152	-0.30948011	1.16768	1.0220914	0.11362445	0.96313603	0.89650116	-0.40976344	1.3822237	0.91994507	0.035472124
404	1.612	1.6105914	0.10239387	-0.26264362	0.86609761	0.037876333	-0.01597087	1.4822263	0.074809707	-0.29450121	0.74732376	0.10686471	0.033754553	1.4847675	0.096268887	-0.21259643	0.77052119	0.12137322	-0.052147144	1.436432	0.019834927	-0.25554754	0.6879731	0.10335462	-0.0096036971	1.3593131	0.44682372	-0.28911784	0.97285151	0.44064422	0.042691823	1.3774975	0.4216257	-0.17136151	0.996891	0.43140048	-0.082925446	1.2154059	0.80391305	-0.31117485	1.0957833	0.83610502	0.064200199	1.252697	0.90966557	-0.22466626	1.1932648	0.91890087	0.019191606	1.0337974	0.91875176	-0.16209968	1.1498575	1.389095	-0.27729844	1.1729401	1.3791736	0.038154694	1.0841033	1.4119963	-0.11900051	0.93976686	1.1182364	-0.3109448	1.1747956	1.0207698	0.11069287	0.96943259	0.89553845	-0.41144815	1.3892145	0.92047092	0.029016735
405	1.616	1.6150099	0.097786346	-0.26259331	0.86652075	0.037855274	-0.015951346	1.4857913	0.072715874	-0.29421922	0.7494328	0.10921136	0.034107604	1.4885622	0.093768767	-0.21195224	0.77290736	0.12323325	-0.051672682	1.438108	0.019702231	-0.25533924	0.69009644	0.10680839	-0.0092826917	1.3664912	0.44577965	-0.28912994	0.97926789	0.43990619	0.042181495	1.3849869	0.42095869	-0.17143917	1.0035968	0.43035466	-0.083285425	1.2222685	0.80350158	-0.31214815	1.1028415	0.83501988	0.062998115	1.2598437	0.90880528	-0.22552764	1.2002602	0.91794908	0.018132331	1.0408347	0.91763583	-0.1633723	1.155119	1.3882286	-0.27859259	1.1791251	1.378244	0.036676928	1.0897018	1.4107806	-0.12021382	0.94518998	1.1170685	-0.31241659	1.181906	1.0195153	0.10776078	0.97583509	0.89458151	-0.41320363	1.3960795	0.92099772	0.02271883
406	1.62	1.6196848	0.091961247	-0.26250386	0.86694967	0.037819956	-0.015908934	1.4892679	0.070945416	-0.29428134	0.75157121	0.11160131	0.034445285	1.4922363	0.091491468	-0.21147844	0.77554011	0.12514074	-0.051221045	1.4393773	0.020092922	-0.25541595	0.6923857	0.11042778	-0.0089794468	1.3735451	0.44468673	-0.28911355	0.98587435	0.43914653	0.041677591	1.3924656	0.42017032	-0.17150563	1.0104991	0.42927826	-0.083649589	1.2291532	0.80309167	-0.31316419	1.1099759	0.83389223	0.061825655	1.2669145	0.90805324	-0.22640001	1.2075734	0.9171165	0.016852182	1.047792	0.91657155	-0.16463118	1.1604139	1.3873928	-0.27992345	1.185312	1.3773541	0.03517894	1.0952991	1.4096069	-0.1214508	0.95068588	1.1158988	-0.31391996	1.1891759	1.0183098	0.10485565	0.98233716	0.89362899	-0.41502641	1.4028369	0.92151201	0.01657699
407	1.624	1.6243806	0.08510967	-0.26215556	0.86741314	0.037771839	-0.01585146	1.4926729	0.069609697	-0.29451149	0.75381696	0.11407144	0.034804705	1.495863	0.089665952	-0.21118195	0.7784109	0.12709743	-0.050757615	1.4404609	0.021004827	-0.25566821	0.69488597	0.11421223	-0.0086873681	1.3804987	0.44361689	-0.28914863	0.99267494	0.43836256	0.041171072	1.3999471	0.41927009	-0.17157521	1.0176102	0.42814725	-0.084030135	1.2360655	0.80267277	-0.31425721	1.1171261	0.83271745	0.060675277	1.2738521	0.90741659	-0.22727715	1.2151244	0.91644854	0.015439178	1.0546289	0.91559276	-0.16587199	1.1657399	1.3865952	-0.28129482	1.1915058	1.3765182	0.033664607	1.1008787	1.4085089	-0.12272078	0.956283	1.1147249	-0.31545671	1.1967284	1.0171394	0.10199173	0.98893059	0.89267607	-0.41690509	1.4095047	0.92200389	0.01057906
